<svg width="20" height="20" viewBox="0 0 20 20" fill="none" xmlns="http://www.w3.org/2000/svg">
<path d="M10.0007 7.50032C11.6115 7.50032 12.9173 6.19449 12.9173 4.58366C12.9173 2.97283 11.6115 1.66699 10.0007 1.66699C8.38982 1.66699 7.08398 2.97283 7.08398 4.58366C7.08398 6.19449 8.38982 7.50032 10.0007 7.50032Z" stroke="white" stroke-width="1.2" stroke-linecap="round" stroke-linejoin="round"/>
<path d="M1.66699 17.0837C1.66699 13.4016 5.02491 10.417 9.16699 10.417" stroke="white" stroke-width="1.2" stroke-linecap="round" stroke-linejoin="round"/>
<path d="M14.167 17.917C16.2381 17.917 17.917 16.2381 17.917 14.167C17.917 12.0959 16.2381 10.417 14.167 10.417C12.0959 10.417 10.417 12.0959 10.417 14.167C10.417 16.2381 12.0959 17.917 14.167 17.917Z" stroke="white" stroke-width="1.2"/>
<path d="M13.75 12.917V14.5837H15.4171" stroke="white" stroke-width="1.2" stroke-linecap="round" stroke-linejoin="round"/>
</svg>
