<svg width="19" height="19" viewBox="0 0 19 19" fill="none" xmlns="http://www.w3.org/2000/svg">
<g clip-path="url(#clip0_1460_1216)">
<path d="M12.7959 8.33673C12.7959 8.49099 12.7346 8.63893 12.6256 8.74801C12.5165 8.85709 12.3685 8.91837 12.2143 8.91837H6.0102C5.85595 8.91837 5.70801 8.85709 5.59893 8.74801C5.48985 8.63893 5.42857 8.49099 5.42857 8.33673C5.42857 8.18248 5.48985 8.03454 5.59893 7.92546C5.70801 7.81638 5.85595 7.7551 6.0102 7.7551H12.2143C12.3685 7.7551 12.5165 7.81638 12.6256 7.92546C12.7346 8.03454 12.7959 8.18248 12.7959 8.33673ZM12.2143 10.8571H6.0102C5.85595 10.8571 5.70801 10.9184 5.59893 11.0275C5.48985 11.1366 5.42857 11.2845 5.42857 11.4388C5.42857 11.593 5.48985 11.741 5.59893 11.8501C5.70801 11.9591 5.85595 12.0204 6.0102 12.0204H12.2143C12.3685 12.0204 12.5165 11.9591 12.6256 11.8501C12.7346 11.741 12.7959 11.593 12.7959 11.4388C12.7959 11.2845 12.7346 11.1366 12.6256 11.0275C12.5165 10.9184 12.3685 10.8571 12.2143 10.8571ZM19 9.5C18.9972 12.0187 17.9954 14.4334 16.2144 16.2144C14.4334 17.9954 12.0187 18.9972 9.5 19H1.32515C0.973779 18.9997 0.636871 18.86 0.388412 18.6116C0.139953 18.3631 0.000256758 18.0262 0 17.6748V9.5C3.75443e-08 6.98044 1.00089 4.56408 2.78249 2.78249C4.56408 1.00089 6.98044 0 9.5 0C12.0196 0 14.4359 1.00089 16.2175 2.78249C17.9991 4.56408 19 6.98044 19 9.5ZM17.8367 9.5C17.8367 7.28896 16.9584 5.16848 15.395 3.60504C13.8315 2.0416 11.711 1.16327 9.5 1.16327C7.28896 1.16327 5.16848 2.0416 3.60504 3.60504C2.0416 5.16848 1.16327 7.28896 1.16327 9.5V17.6748C1.16327 17.7178 1.18032 17.759 1.21068 17.7893C1.24104 17.8197 1.28222 17.8367 1.32515 17.8367H9.5C11.7103 17.8342 13.8292 16.955 15.3921 15.3921C16.955 13.8292 17.8342 11.7103 17.8367 9.5Z" fill="white"/>
</g>
<defs>
<clipPath id="clip0_1460_1216">
<rect width="19" height="19" fill="white"/>
</clipPath>
</defs>
</svg>
