<svg width="22" height="22" viewBox="0 0 22 22" fill="none" xmlns="http://www.w3.org/2000/svg">
<path d="M17.8742 19.9375H17.7574C4.24797 19.1606 2.32985 7.76188 2.06172 4.28313C2.04012 4.01265 2.0721 3.74057 2.15583 3.48247C2.23955 3.22437 2.37339 2.98533 2.54965 2.77905C2.72592 2.57276 2.94116 2.40329 3.18304 2.28033C3.42492 2.15737 3.68869 2.08335 3.95922 2.0625H7.74735C8.02273 2.06223 8.29185 2.14466 8.51985 2.29911C8.74784 2.45356 8.92421 2.67291 9.0261 2.92875L10.0711 5.5C10.1717 5.74994 10.1967 6.02393 10.1429 6.28794C10.0891 6.55195 9.95897 6.79434 9.7686 6.985L8.30422 8.46313C8.53297 9.76302 9.15548 10.9613 10.0875 11.8958C11.0196 12.8303 12.2162 13.456 13.5155 13.6881L15.0074 12.21C15.2009 12.0217 15.4456 11.8946 15.7109 11.8445C15.9762 11.7944 16.2503 11.8234 16.4992 11.9281L19.0911 12.9663C19.3431 13.0714 19.5581 13.2491 19.7087 13.4768C19.8593 13.7046 19.9387 13.972 19.9367 14.245V17.875C19.9367 18.422 19.7194 18.9466 19.3326 19.3334C18.9458 19.7202 18.4212 19.9375 17.8742 19.9375ZM4.12422 3.4375C3.94189 3.4375 3.76702 3.50993 3.63809 3.63886C3.50916 3.7678 3.43672 3.94266 3.43672 4.125V4.18C3.75297 8.25 5.7811 17.875 17.833 18.5625C17.9233 18.5681 18.0138 18.5558 18.0994 18.5263C18.1849 18.4968 18.2638 18.4507 18.3315 18.3907C18.3992 18.3306 18.4544 18.2578 18.4939 18.1764C18.5334 18.095 18.5565 18.0066 18.5617 17.9162V14.245L15.9699 13.2069L13.9967 15.1662L13.6667 15.125C7.68547 14.3756 6.87422 8.39438 6.87422 8.3325L6.83297 8.0025L8.78547 6.02938L7.75422 3.4375H4.12422Z" fill="white"/>
</svg>
