<svg width="27" height="27" viewBox="0 0 27 27" fill="none" xmlns="http://www.w3.org/2000/svg">
<path d="M3.58552 13.5002C3.58552 13.3323 3.65219 13.1714 3.77086 13.0527C3.88954 12.934 4.0505 12.8673 4.21833 12.8673L21.2526 12.8673L14.7399 6.3536C14.6777 6.29566 14.6278 6.2258 14.5933 6.14818C14.5587 6.07055 14.5401 5.98676 14.5386 5.90179C14.5371 5.81682 14.5527 5.73242 14.5845 5.65363C14.6164 5.57483 14.6637 5.50325 14.7238 5.44316C14.7839 5.38307 14.8555 5.3357 14.9343 5.30387C15.0131 5.27204 15.0975 5.25641 15.1825 5.25791C15.2674 5.25941 15.3512 5.27801 15.4288 5.31259C15.5065 5.34718 15.5763 5.39705 15.6343 5.45922L23.228 13.053C23.3465 13.1716 23.4131 13.3325 23.4131 13.5002C23.4131 13.6679 23.3465 13.8287 23.228 13.9473L15.6343 21.5411C15.5143 21.6529 15.3556 21.7137 15.1917 21.7108C15.0278 21.7079 14.8713 21.6415 14.7554 21.5256C14.6395 21.4096 14.573 21.2532 14.5701 21.0893C14.5673 20.9253 14.6281 20.7667 14.7399 20.6467L21.2526 14.133L4.21833 14.133C4.0505 14.133 3.88954 14.0663 3.77086 13.9476C3.65219 13.829 3.58552 13.668 3.58552 13.5002Z" fill="white"/>
</svg>
