<svg width="33" height="33" viewBox="0 0 33 33" fill="none" xmlns="http://www.w3.org/2000/svg">
<circle cx="16.5" cy="16.5" r="16.5" fill="#DFF6F0"/>
<path d="M16.5 7.64062C14.7478 7.64062 13.0349 8.16022 11.578 9.1337C10.1211 10.1072 8.98555 11.4908 8.31501 13.1097C7.64446 14.7285 7.46902 16.5098 7.81086 18.2284C8.1527 19.9469 8.99647 21.5255 10.2355 22.7645C11.4745 24.0035 13.0531 24.8473 14.7716 25.1891C16.4902 25.531 18.2715 25.3555 19.8903 24.685C21.5092 24.0145 22.8928 22.8789 23.8663 21.422C24.8398 19.9651 25.3594 18.2522 25.3594 16.5C25.3568 14.1511 24.4225 11.8992 22.7617 10.2384C21.1008 8.57746 18.8489 7.64323 16.5 7.64062ZM16.5 23.3906C15.1372 23.3906 13.8049 22.9865 12.6718 22.2293C11.5386 21.4722 10.6554 20.396 10.1339 19.1369C9.61236 17.8778 9.4759 16.4924 9.74178 15.1557C10.0077 13.8191 10.6639 12.5913 11.6276 11.6276C12.5913 10.6639 13.8191 10.0077 15.1557 9.74178C16.4924 9.4759 17.8778 9.61236 19.1369 10.1339C20.396 10.6554 21.4722 11.5386 22.2293 12.6718C22.9865 13.8049 23.3906 15.1372 23.3906 16.5C23.3887 18.3269 22.6621 20.0784 21.3703 21.3702C20.0784 22.6621 18.3269 23.3887 16.5 23.3906ZM19.7813 16.5C19.7812 16.6583 19.743 16.8142 19.6699 16.9546C19.5968 17.095 19.4909 17.2156 19.3613 17.3064L16.08 19.6032C15.9325 19.7065 15.7595 19.7673 15.5798 19.779C15.4002 19.7907 15.2207 19.753 15.061 19.6698C14.9013 19.5867 14.7675 19.4613 14.6741 19.3074C14.5807 19.1535 14.5313 18.9769 14.5313 18.7969V14.2031C14.5313 14.0231 14.5807 13.8465 14.6741 13.6926C14.7675 13.5387 14.9013 13.4133 15.061 13.3302C15.2207 13.247 15.4002 13.2093 15.5798 13.221C15.7595 13.2327 15.9325 13.2935 16.08 13.3968L19.3613 15.6936C19.4909 15.7844 19.5968 15.905 19.6699 16.0454C19.743 16.1858 19.7812 16.3417 19.7813 16.5Z" fill="#19CE65"/>
</svg>
